{"title":"Big.Brother.AU.S11E49.PDTV.x264-NoGRP","uid":11450862,"size":339003373,"categoryP":"video","categoryS":"tv_shows","magnet":"?xt=urn:btih:b9fefca3d1be1d34f58d5f6bea6c90ffec271b2c&amp;dn=Big.Brother.AU.S11E49.PDTV.x264-NoGRP&amp;tr=udp%3A%2F%2Ftracker.openbittorrent.com%3A80&amp;tr=udp%3A%2F%2Fopen.demonii.com%3A1337&amp;tr=udp%3A%2F%2Ftracker.coppersurfer.tk%3A6969&amp;tr=udp%3A%2F%2Fexodus.desync.com%3A6969","seeders":1,"leechers":0,"uploader":"whowhatwhen2","files":1,"time":1415886416,"description":"Format                                   : MPEG-4\nFormat profile                           : Base Media / Version 2\nCodec ID                                 : mp42\nFile size                                : 323 MiB\nDuration                                 : 51mn 55s\nOverall bit rate mode                    : Variable\nOverall bit rate                         : 871 Kbps\n\n\nVideo\nID                                       : 1\nFormat                                   : AVC\nFormat/Info                              : Advanced Video Codec\nFormat profile                           : &lt;a class=&quot;__cf_email__&quot; href=&quot;/cdn-cgi/l/email-protection&quot; data-cfemail=&quot;1d55747a755d512e332c&quot;&gt;[email&amp;#160;protected]&lt;/a&gt;&lt;script cf-hash='f9e31' type=&quot;text/javascript&quot;&gt;\n/* &lt;![CDATA[ */!function(){try{var t=&quot;currentScript&quot;in document?document.currentScript:function(){for(var t=document.getElementsByTagName(&quot;script&quot;),e=t.length;e--;)if(t[e].getAttribute(&quot;cf-hash&quot;))return t[e]}();if(t&amp;&amp;t.previousSibling){var e,r,n,i,c=t.previousSibling,a=c.getAttribute(&quot;data-cfemail&quot;);if(a){for(e=&quot;&quot;,r=parseInt(a.substr(0,2),16),n=2;a.length-n;n+=2)i=parseInt(a.substr(n,2),16)^r,e+=String.fromCharCode(i);e=document.createTextNode(e),c.parentNode.replaceChild(e,c)}}}catch(u){}}();/* ]]&gt; */&lt;/script&gt;\nFormat settings, CABAC                   : Yes\nFormat settings, ReFrames                : 4 frames\nCodec ID                                 : avc1\nCodec ID/Info                            : Advanced Video Coding\nDuration                                 : 51mn 55s\nBit rate                                 : 706 Kbps\nWidth                                    : 720 pixels\nHeight                                   : 400 pixels\nDisplay aspect ratio                     : 16:9\nFrame rate mode                          : Variable\nFrame rate                               : 25.000 fps\nMinimum frame rate                       : 25.000 fps\nScan type                                : Progressive\nBits/(Pixel*Frame)                       : 0.098\nStream size                              : 262 MiB (81%)\nWriting library                          : x264 core 130 r2273 b3065e6\n\n\nAudio\nID                                       : 2\nFormat                                   : AAC\nFormat profile                           : LC\nCodec ID                                 : 40\nDuration                                 : 51mn 55s\nBit rate mode                            : Variable\nBit rate                                 : 160 Kbps\nMaximum bit rate                         : 192 Kbps\nChannel(s)                               : 2 channels\nChannel positions                        : Front: L R\nSampling rate                            : 48.0 KHz\nCompression mode                         : Lossy\nStream size                              : 59.4 MiB (18%)\nLanguage                                 : English","torrent":{"xt":"urn:btih:b9fefca3d1be1d34f58d5f6bea6c90ffec271b2c","amp;dn":"Big.Brother.AU.S11E49.PDTV.x264-NoGRP","amp;tr":["udp%3A%2F%2Ftracker.openbittorrent.com%3A80","udp%3A%2F%2Fopen.demonii.com%3A1337","udp%3A%2F%2Ftracker.coppersurfer.tk%3A6969","udp%3A%2F%2Fexodus.desync.com%3A6969"],"infoHash":"b9fefca3d1be1d34f58d5f6bea6c90ffec271b2c","infoHashBuffer":{"type":"Buffer","data":[185,254,252,163,209,190,29,52,245,141,95,107,234,108,144,255,236,39,27,44]},"announce":[],"urlList":[]}}